<?xml version="1.0" encoding="utf-8"?>
<!-- Generator: Adobe Illustrator 27.3.1, SVG Export Plug-In . SVG Version: 6.00 Build 0)  -->
<svg version="1.1" id="Camada_1" xmlns="http://www.w3.org/2000/svg" xmlns:xlink="http://www.w3.org/1999/xlink" x="0px" y="0px"
	 viewBox="0 0 600 600" style="enable-background:new 0 0 600 600;" xml:space="preserve">
<style type="text/css">
	.st0{fill:#FFFFFF;stroke:#000000;stroke-width:6;stroke-linecap:round;stroke-miterlimit:10;}
	.st1{fill:none;stroke:#000000;stroke-width:6;stroke-linecap:round;stroke-linejoin:round;stroke-miterlimit:10;}
	.st2{display:none;}
</style>
<g id="Camada_1_00000098213944971875891830000004712528133374359205_">
	<path class="st0" d="M91.6,202c20.6,3.1,52.5,10.7,86.1,31c21.4,12.9,37.4,27.3,48.7,39.2"/>
	<path class="st1" d="M116.1,272.2c-8.6-7.9-27-22.7-54.8-29.7c-22.8-5.8-42.1-3.9-53.2-1.9c10.7,6.6,25.2,17.3,38,34.2
		c15.5,20.6,16.7,34.8,27.9,54.4c16.1,28.3,39,43.4,55.8,54.5c52.6,34.5,108.2,33.7,129.6,32.2c-22.4-2.1-87.3-11.2-117.1-58.2
		c-21.5-34-25.3-70.9-25.3-70.9c-1.4-17.3-0.4-34.3-9.5-57c-5-12.5-11.3-21.9-15.8-27.9"/>
	<path class="st1" d="M146.1,127.3c17.4,6,47.5,19,74.7,47.5c15.3,16,25.3,32.2,31.6,44.9"/>
	<path class="st1" d="M152.7,219.9c2.1-11.2,3.7-25.8,2.9-42.6c-1-20.7-5.3-37.7-9.5-50"/>
	<path class="st0" d="M509.7,202.4c-20.6,3.1-52.5,10.7-86.1,31c-21.4,12.9-37.4,27.3-48.7,39.2"/>
	<path class="st1" d="M485.3,272.6c8.6-7.9,27-22.7,54.8-29.7c22.8-5.8,42.1-3.9,53.2-1.9c-10.7,6.6-25.2,17.3-38,34.2
		c-15.5,20.6-16.7,34.8-27.8,54.4c-16.1,28.3-39,43.4-55.9,54.5C419,418.6,363.3,417.7,342,416.3c22.4-2.1,87.3-11.2,117.1-58.2
		c21.5-34,25.3-70.9,25.3-70.9c1.4-17.3,0.4-34.3,9.5-57c5-12.5,11.3-21.9,15.8-27.9"/>
	<path class="st1" d="M455.2,127.7c-17.4,6-47.5,19-74.7,47.5c-15.3,16-25.3,32.2-31.6,44.9"/>
	<path class="st1" d="M448.6,220.3c-2.1-11.2-3.7-25.8-2.9-42.6c1-20.7,5.3-37.7,9.5-50"/>
	<path class="st1" d="M292.3,143.8c-4.9,0.3-3.2,18.1-14.6,41.1c-7.6,15.6-14.1,19.1-25.3,34.8c0,0-15.7,22-25.9,52.5
		c-13,38.8-15,115.2,32.9,143.7c24.2,14.4,58.1,14.7,82.6,0.4c50.1-29.5,42-109.9,32.9-143.7c-3.7-13.8-9.2-34.1-26-52.5
		c-13.5-14.9-21.8-14.8-33.9-30.8C297.5,166.2,297.9,143.4,292.3,143.8z"/>
	<path class="st1" d="M186.9,409.1c-21.2-1.6-55-0.3-84.1,20.7c-20.8,15-38.6,39.6-33.4,47c3.8,5.4,15.8-2.9,40.8-2.3
		c26,0.7,33.3,10.3,52.1,11.3c14.1,0.8,35-3.2,61.7-27.2"/>
	<path class="st1" d="M260.3,417.5c-3.6,1.8-32.5,16.7-39.4,50.5c-6.5,31.5,11.8,56,15.4,60.9c7.2,9.6,11.6,10.7,20.5,17.6
		c3.8,3,7,5.8,12.9,11.6c24.9,24.3,26.4,32.2,33.3,31.9c8.7-0.4,13.2-13.2,31.8-36.2c3.4-4.2,5.5-6.5,8-9c5.1-5,8.2-6.6,15.1-15
		c11.7-14.2,29.9-36.4,27-61.7c-3.6-31.9-38.4-49.3-42.5-51.3"/>
	<path class="st1" d="M216.7,170.6c2-11.9,6.6-28.6,18.6-44c9.2-11.8,14-11.7,24-22.8c24.4-27,21.6-55.9,31-56.3
		c8.1-0.4,8.2,21.3,28.5,45.6c17.5,20.9,29.7,19.4,41.1,36.7c6.8,10.3,13.8,27.9,9.1,58.4"/>
	<path class="st1" d="M73.8,478.6c3.3,1.3,7.8,3.1,13.2,5c5.7,2,17.8,6,35.1,9.6c15.3,3.2,23,4.9,33.6,5.4
		c17.5,0.8,35.1,1.7,49.6-9.3c8.8-6.7,13.4-15.4,15.7-21.1"/>
	<path class="st1" d="M417.2,408.7c22.3-2,58.6-1.3,89.4,21.1c20.7,15,38.6,39.6,33.4,47c-3.8,5.4-15.8-2.9-40.8-2.3
		c-26.1,0.7-34,10.1-52.1,11.3c-15.5,1.1-37.5-4-65.8-31.6"/>
	<path class="st1" d="M535.5,478.6c-3.3,1.3-7.8,3.1-13.2,5c-5.7,2-17.8,6-35.1,9.6c-15.3,3.2-23,4.9-33.6,5.4
		c-15.6,0.7-33.4,1.4-49.6-9.3c-10-6.6-15.8-15.3-19-21.1"/>
	<path class="st1" d="M290,37"/>
</g>
<g id="Camada_2_00000142870999718886753540000014640698957198108093_" class="st2">
	
		<image style="display:inline;overflow:visible;opacity:0.2;enable-background:new    ;" width="898" height="780" xlink:href="B1B6B337.jpeg"  transform="matrix(0.6661 0 0 0.6661 0.9178 40.2181)">
	</image>
</g>
</svg>
