<?xml version="1.0" standalone="no"?>
<!DOCTYPE svg PUBLIC "-//W3C//DTD SVG 20010904//EN" "http://www.w3.org/TR/2001/REC-SVG-20010904/DTD/svg10.dtd">
<!-- Created using Krita: https://krita.org -->
<svg xmlns="http://www.w3.org/2000/svg" 
    xmlns:xlink="http://www.w3.org/1999/xlink"
    xmlns:krita="http://krita.org/namespaces/svg/krita"
    xmlns:sodipodi="http://sodipodi.sourceforge.net/DTD/sodipodi-0.dtd"
    width="720pt"
    height="240pt"
    viewBox="0 0 720 240">
<defs/>
<path id="shape0" transform="translate(232.886250047569, 109.84499987483)" fill="#000000" fill-rule="evenodd" stroke-opacity="0" stroke="#000000" stroke-width="0" stroke-linecap="square" stroke-linejoin="bevel" d="M34.0425 37.8413L29.8575 40.2412L27.48 35.475C23.985 38.7575 20.95 39.1388 15.375 39.1388C5.845 39.1388 2.04 35.2612 2.04 23.9063L0 0.48L7.8075 1.92L6.1275 24.4537C6.1275 32.8912 8.03625 34.23 16.0538 35.55C26.7387 32.31 28.7175 29.0525 28.7175 25.3275L29.3175 1.92L34.4025 0L32.1225 31.3613" sodipodi:nodetypes="ccccccccccccc"/><path id="shape1" transform="translate(188.219999980812, 109.124999924898)" fill="#000000" fill-rule="evenodd" stroke-opacity="0" stroke="#000000" stroke-width="0" stroke-linecap="square" stroke-linejoin="bevel" d="M5.685 38.7413L0 40.0012L0 0L5.415 2.88L4.245 32.5313" sodipodi:nodetypes="ccccc"/><path id="shape2" transform="translate(156.427499972467, 96.4700001248719)" fill="#000000" fill-rule="evenodd" stroke-opacity="0" stroke="#000000" stroke-width="0" stroke-linecap="square" stroke-linejoin="bevel" d="M24.3187 51.8662C22.8087 52.6987 18.1762 52.785 15.7012 52.785C8.69625 52.785 8.55375 53.4387 8.55375 45.6262L8.55375 19.7962L0 20.2762L0 14.805L8.07375 15.765L6.15375 0L12.8025 8.01L11.3625 15.765L23.3587 14.805L23.3587 20.2762L11.6025 18.5962L11.8425 44.7337C11.8425 47.4162 13.7381 47.4106 14.6494 48.5569C15.2569 49.321 17.76 49.0342 22.1587 47.6963" sodipodi:nodetypes="cccccccccccccccc"/><path id="shape3" transform="translate(121.383749964123, 106.631250033379)" fill="#000000" fill-rule="evenodd" stroke-opacity="0" stroke="#000000" stroke-width="0" stroke-linecap="square" stroke-linejoin="bevel" d="M0 37.0913L6.24 32.3738C9.73 34.9537 11.8913 38.1638 16.0838 38.1638C21.7088 38.1638 23.5613 34.6088 23.5613 30.8588C23.5613 29.7887 23.3206 28.8831 22.8394 28.1419C22.3581 27.4006 21.7069 26.7431 20.8856 26.1694C20.0644 25.5956 19.1006 25.0813 17.9944 24.6262C16.8881 24.1713 15.6975 23.6962 14.4225 23.2013C12.65 22.4988 9.65312 23.7094 8.31188 22.9931C6.97063 22.2769 5.13125 20.0294 4.23375 19.1306C3.33625 18.2319 -0.700625 12.6494 1.72313 15.3431C1.26687 14.1969 -0.40125 7.81625 1.99875 9.40125C1.99875 7.52625 3.86875 4.66625 4.72875 3.22125C5.58875 1.77625 6.97437 3.925 8.40562 2.9475C9.83687 1.97 11.4706 1.23438 13.3069 0.740625C15.1431 0.246875 17.0375 0 18.99 0C22.455 0 25.555 0.59875 28.29 1.79625L28.29 8.28C25.345 6.3525 21.9587 5.38875 18.1312 5.38875C16.9338 5.38875 15.8531 5.52563 14.8894 5.79937C13.9256 6.07313 13.0987 6.4575 12.4087 6.9525C11.7188 7.4475 11.185 8.04 10.8075 8.73C10.43 9.42 10.2413 10.1813 10.2413 11.0138C10.2413 12.0563 10.43 12.9288 10.8075 13.6313C11.185 14.3338 11.7388 14.9588 12.4688 15.5063C13.1987 16.0538 14.0844 16.5487 15.1256 16.9913C16.1669 17.4338 17.3512 17.915 18.6788 18.435C20.4487 19.1125 22.0369 19.8094 23.4431 20.5256C24.8494 21.2419 26.0475 22.0494 27.0375 22.9481C28.0275 23.8469 28.7894 24.8819 29.3231 26.0531C29.8569 27.2244 30.1238 28.6175 30.1238 30.2325C30.1238 32.2125 29.6875 33.9313 28.815 35.3888C27.9425 36.8462 26.7775 38.0569 25.32 39.0206C23.8625 39.9844 22.1831 40.7006 20.2819 41.1694C18.3806 41.6381 16.3875 41.8725 14.3025 41.8725C10.19 41.8725 6.6225 41.0788 3.6 39.4913" sodipodi:nodetypes="cccccccccccccccccccccccccccccccccccc"/><path id="shape4" transform="translate(82.1324999641225, 106.39125002861)" fill="#000000" fill-rule="evenodd" stroke-opacity="0" stroke="#000000" stroke-width="0" stroke-linecap="square" stroke-linejoin="bevel" d="M29.0625 34.635L24.8775 42.615L24.1575 26.0437C24.1575 17.5537 28.2587 5.38875 22.0613 5.38875C18.8587 5.38875 11.6487 6.59313 9.55125 9.00187C7.45375 11.4106 6.405 14.4513 6.405 18.1238L5.205 38.535L0 40.935L0.24 12.8887L2.085 6.45375L6.405 7.575L6.5625 7.575C9.5825 2.525 13.9575 0 19.6875 0C24.0625 0 27.4087 1.4125 29.7262 4.2375C32.0437 7.0625 29.6025 19.7838 29.6025 25.1213" sodipodi:nodetypes="ccccccccccccccc"/><g id="group0" transform="translate(47.4796430562479, 82.9405512679434)" fill="none">
  <path id="shape5" transform="translate(14.2228569078746, 9.09194873205682)" fill="#000000" fill-rule="evenodd" stroke-opacity="0" stroke="#000000" stroke-width="0" stroke-linecap="square" stroke-linejoin="bevel" d="M6.5625 56.0137L0 56.0137L0 0L6.5625 0L6.5625 56.0137" sodipodi:nodetypes="ccccc"/>
  <path id="shape6" transform="translate(-4.81520601169905e-10, 0)" fill="#000000" stroke-opacity="0" stroke="#000000" stroke-width="0" stroke-linecap="square" stroke-linejoin="bevel" d="M0.00131731 0.810292C-0.000763274 0.834355 -0.000379274 0.85262 0.00246931 0.865087C0.00728192 0.88615 0.0138379 0.904535 0.0268002 0.92182C0.0613823 0.967936 0.0978629 1.00189 0.136876 1.04432C0.220827 1.13563 0.292115 1.21454 0.378117 1.30392C0.45187 1.38057 0.51369 1.44799 0.593237 1.5186C0.686978 1.60182 0.771353 1.66879 0.872511 1.74282C0.976328 1.81879 1.07311 1.87269 1.17831 1.94674C1.53043 2.19462 1.81876 2.42659 2.17899 2.66252C2.69104 2.99789 3.13591 3.27735 3.66905 3.57806C3.9039 3.71052 4.12339 3.78866 4.36978 3.89819C4.59556 3.99855 4.7901 4.08235 5.01804 4.17771C5.24357 4.27205 5.4353 4.3574 5.66533 4.44015C6.36834 4.69303 6.96717 4.92313 7.6832 5.13641C8.05311 5.24659 8.38539 5.28054 8.76252 5.36268C8.94399 5.4022 9.09975 5.43582 9.27912 5.484C9.45792 5.53203 9.6056 5.59304 9.78534 5.63742C10.0726 5.70833 10.3217 5.75694 10.6121 5.81311C11.2093 5.92861 11.7202 6.03415 12.3212 6.12786C12.6033 6.17184 12.8485 6.18306 13.1331 6.20618C13.3307 6.22224 13.5004 6.23182 13.6985 6.2398C14.2084 6.26034 14.6455 6.28063 15.1558 6.28767C15.8832 6.29771 16.5075 6.31949 17.2343 6.2886C17.3935 6.28184 17.5212 6.21623 17.6765 6.18055C17.83 6.14528 17.9639 6.1252 18.1164 6.08591C18.3991 6.0131 18.6391 5.94241 18.9192 5.86041C19.1869 5.78204 19.416 5.71355 19.6814 5.62773C19.809 5.58646 19.9163 5.54463 20.0418 5.4974C20.5339 5.3122 20.9556 5.15284 21.4462 4.96363C21.6313 4.89224 21.791 4.83306 21.9725 4.75286C22.2241 4.64163 22.4334 4.53229 22.6833 4.41692C22.8803 4.32592 23.0565 4.26316 23.2492 4.16324C23.8568 3.84813 24.3825 3.58502 24.9688 3.23172C25.371 2.98938 25.6742 2.71814 26.069 2.46402C26.2927 2.32006 26.5007 2.22387 26.7338 2.09577C26.8743 2.0186 27.0048 1.96915 27.1363 1.87754C27.3677 1.71621 27.5701 1.57766 27.7671 1.37563C28.0151 1.12119 28.1787 0.859775 28.3997 0.581546C28.4827 0.477156 28.5515 0.385892 28.6356 0.282441C28.6899 0.215699 28.7689 0.121552 28.8725 0L32.7778 6.76419C32.674 6.88542 32.5949 6.9793 32.5405 7.04584C32.4562 7.14893 32.3868 7.2396 32.3039 7.34383C32.0827 7.62204 31.9204 7.88462 31.6716 8.13853C31.4744 8.33989 31.2706 8.47634 31.0382 8.63591C30.9061 8.72663 30.7749 8.77461 30.634 8.85107C30.4002 8.97797 30.1921 9.07392 29.9678 9.21694C29.5721 9.4693 29.2671 9.73799 28.8646 9.97936C28.2775 10.3314 27.7515 10.5937 27.1443 10.9099C26.952 11.01 26.7778 11.0768 26.5812 11.1684C26.3318 11.2846 26.1218 11.3926 25.87 11.5036C25.6884 11.5836 25.5281 11.6412 25.3435 11.7138C24.8549 11.9061 24.4366 12.0722 23.9464 12.2605C23.8211 12.3086 23.713 12.3481 23.5851 12.3891C23.3194 12.4743 23.0903 12.5429 22.8223 12.6208C22.5419 12.7023 22.3013 12.7719 22.0184 12.8443C21.8658 12.8833 21.7321 12.9044 21.5785 12.939C21.4227 12.9741 21.2938 13.0371 21.1342 13.0434C20.4065 13.0721 19.7816 13.0495 19.0534 13.0386C18.5431 13.031 18.106 13.0112 17.596 12.9905C17.3978 12.9824 17.2281 12.9724 17.0304 12.9565C16.7462 12.9336 16.5011 12.9235 16.2193 12.8796C15.6181 12.786 15.1072 12.6793 14.5098 12.5641C14.2199 12.5082 13.971 12.461 13.6843 12.3906C13.5045 12.3464 13.3568 12.2852 13.178 12.2371C12.9985 12.1888 12.8427 12.1552 12.6611 12.1153C12.2833 12.0322 11.9508 11.9957 11.5799 11.8857C10.8661 11.674 10.2679 11.4487 9.5669 11.1979C9.33605 11.1153 9.14436 11.0281 8.9183 10.9332C8.69033 10.8374 8.49547 10.754 8.26972 10.6531C8.02241 10.5426 7.8026 10.4625 7.5668 10.3292C7.0337 10.0277 6.58928 9.74707 6.0762 9.41268C5.71969 9.18034 5.43254 8.95413 5.08349 8.71073C4.97817 8.63728 4.88191 8.583 4.77808 8.50746C4.67782 8.43452 4.59389 8.36889 4.5009 8.28688C4.42178 8.2171 4.36052 8.15018 4.28707 8.07444C4.20259 7.98731 4.13237 7.91053 4.04976 7.82163C4.01156 7.78052 3.97572 7.74778 3.94191 7.703C3.92917 7.68612 3.92262 7.6681 3.91824 7.64741C3.91579 7.63581 3.91617 7.61888 3.9194 7.59661L3.9194 7.59661Z" sodipodi:nodetypes="cccccccccccccccccccccccccccccccccccccccccccccccccccccccccccccccccccccccccccccccccc"/>
  <path id="shape7" transform="translate(3.86531731119868, 60.4129295916892)" fill="#000000" stroke-opacity="0" stroke="#000000" stroke-width="0" stroke-linecap="square" stroke-linejoin="bevel" d="M1.95904 5.20652C0.653013 2.94441 1.04985e-07 1.81336 0 1.81336C0.0342327 1.81725 0.0605367 1.81847 0.078912 1.81702C0.219493 1.80591 0.3397 1.7926 0.479674 1.77546C0.861766 1.72868 1.18869 1.68392 1.57043 1.63442C1.9056 1.59096 2.1936 1.55881 2.52801 1.50986C2.87409 1.45919 3.16909 1.40514 3.51446 1.34982C4.12114 1.25266 4.64251 1.17759 5.24816 1.07419C5.6917 0.998461 6.06833 0.913697 6.5119 0.83806C8.02213 0.58053 9.31596 0.354924 10.8302 0.122318C11.0825 0.0835662 11.302 0.0714794 11.5571 0.0630769C12.6021 0.0286565 13.4982 0.000584339 14.5438 2.28165e-06C14.9106 -0.000201931 15.2264 0.0132512 15.5901 0.0608318C16.1369 0.132355 16.6089 0.194152 17.1408 0.339711C17.5467 0.450803 17.869 0.62398 18.2556 0.790299C18.4558 0.876417 18.6173 0.972117 18.8165 1.06062C18.9473 1.11876 19.0619 1.16346 19.1976 1.20896C19.6433 1.35839 20.0259 1.48537 20.4771 1.61738C21.1402 1.81141 21.715 1.95487 22.3805 2.14031C22.6372 2.21183 22.8596 2.26577 23.1119 2.35154C23.4007 2.44975 23.6423 2.55109 23.9251 2.66546C23.9684 2.68295 24.0283 2.71215 24.1049 2.75305L28.0089 9.51496C27.9322 9.47402 27.8722 9.44471 27.8289 9.42703C27.5449 9.31096 27.3026 9.20792 27.0126 9.10774C26.7593 9.02024 26.5364 8.96311 26.2782 8.89128C25.6144 8.70656 25.0402 8.56665 24.3785 8.37476C23.9281 8.24417 23.5461 8.11834 23.1012 7.97009C22.9655 7.92488 22.8509 7.88045 22.7203 7.82222C22.5206 7.73318 22.3586 7.63695 22.1581 7.54966C21.7695 7.38045 21.4461 7.2038 21.0379 7.08967C20.5044 6.94052 20.0308 6.87455 19.4818 6.80136C19.1187 6.75296 18.8031 6.74281 18.4368 6.74296C17.3907 6.74339 16.494 6.76974 15.4484 6.803C15.1931 6.81112 14.9737 6.82433 14.7209 6.86116C13.1998 7.08281 11.8991 7.29411 10.382 7.54124C9.93742 7.61365 9.55984 7.69552 9.11632 7.77406C8.5142 7.88068 7.99745 7.96842 7.3945 8.07025C7.04977 8.12848 6.75423 8.17824 6.40867 8.23137C6.07644 8.28244 5.79055 8.31867 5.45804 8.36795C5.0807 8.42388 4.75748 8.47331 4.38055 8.53198C4.24462 8.55313 4.12888 8.57609 3.99277 8.59602C3.9755 8.59855 3.95061 8.59976 3.91808 8.59968L3.91808 8.59968C3.91808 8.59968 3.26507 7.46862 1.95904 5.20652Z" sodipodi:nodetypes="ccccccccccccccccccccccccccccccccccccccccccccc"/>
 </g><path id="shape01" transform="translate(202.353366077602, 95.7898437010848)" fill="#000000" fill-rule="evenodd" stroke-opacity="0" stroke="#000000" stroke-width="0" stroke-linecap="square" stroke-linejoin="bevel" d="M21.4387 51.0563C19.9287 51.8888 17.7262 52.425 13.7212 53.325C7.70625 51.165 8.55375 53.4387 8.55375 45.6262L8.55375 19.7962L0 20.2762L0 14.805L8.07375 15.765L6.15375 0L12.8025 8.01L11.3625 15.765L23.3587 14.805L23.3587 20.2762L11.6025 18.5962L12.6525 45.1837C12.6525 47.8662 12.8381 48.2206 13.7494 49.3669C14.6606 50.5131 17.9563 48.4537 19.1287 47.5687L22.1587 47.6963" sodipodi:nodetypes="ccccccccccccccccc"/><path id="shape02" transform="translate(272.489231362876, 95.9623440599046)" fill="#000000" fill-rule="evenodd" stroke-opacity="0" stroke="#000000" stroke-width="0" stroke-linecap="square" stroke-linejoin="bevel" d="M21.4387 51.0563C19.9287 51.8888 17.7262 52.425 13.7212 53.325C7.70625 51.165 8.55375 53.4387 8.55375 45.6262L8.55375 19.7962L0 20.2762L0 14.805L8.07375 15.765L6.15375 0L12.8025 8.01L11.3625 15.765L23.3587 14.805L23.3587 20.2762L11.6025 18.5962L12.6525 45.1837C12.6525 47.8662 12.8381 48.2206 13.7494 49.3669C14.6606 50.5131 17.9563 48.4537 19.1287 47.5687L22.1587 47.6963" sodipodi:nodetypes="ccccccccccccccccc"/><path id="shape8" transform="translate(301.52000023365, 108.559999966621)" fill="none" stroke="#000000" stroke-width="5.28" stroke-linecap="square" stroke-linejoin="bevel" d="M40 20C40 8.95431 31.0457 6.66134e-16 20 0C10.3808 3.13836 1.76587 12.8392 0 20C-1.35266e-15 31.0457 8.95431 40 20 40C29.9576 38.6943 39.5459 30.5008 40 20Z" sodipodi:nodetypes="ccccc"/><path id="shape03" transform="translate(368.799975049505, 97.6799932074573)" fill="#000000" fill-rule="evenodd" stroke-opacity="0" stroke="#000000" stroke-width="0" stroke-linecap="square" stroke-linejoin="bevel" d="M0 48.6233L8.50951 42.4391C13.2688 45.8211 16.2162 50.0292 21.9335 50.0292C29.6044 50.0292 32.1306 45.369 32.1306 40.4531C32.1306 39.0503 31.8024 37.8631 31.1462 36.8914C30.4898 35.9197 29.6018 35.0578 28.4818 34.3057C27.3619 33.5535 26.0476 32.8793 24.539 32.2827C23.0304 31.6864 21.4067 31.0635 19.668 30.4148C17.2509 29.4939 13.164 31.0808 11.3349 30.1418C9.50588 29.203 6.99751 26.2567 5.77358 25.0785C4.54966 23.9003 -0.955445 16.5822 2.34984 20.1134C1.72764 18.6108 -0.547186 10.2464 2.7257 12.3242C2.7257 9.86622 5.27583 6.11703 6.44862 4.22276C7.6214 2.3285 9.51098 5.14531 11.4628 3.8639C13.4146 2.58249 15.6425 1.61816 18.1467 0.970891C20.6507 0.32363 23.2341 0 25.8967 0C30.622 0 34.8495 0.784906 38.5792 2.35472L38.5792 10.8543C34.5631 8.32754 29.9452 7.06416 24.7256 7.06416C23.0927 7.06416 21.6189 7.24359 20.3047 7.60244C18.9904 7.96132 17.8628 8.46519 16.9218 9.11409C15.981 9.76299 15.253 10.5397 14.7382 11.4442C14.2234 12.3488 13.9661 13.3468 13.9661 14.4381C13.9661 15.8047 14.2234 16.9485 14.7382 17.8694C15.253 18.7903 16.0083 19.6096 17.0038 20.3273C17.9991 21.0451 19.207 21.6938 20.6268 22.274C22.0469 22.8541 23.6619 23.4849 25.4724 24.1666C27.886 25.0547 30.0518 25.9683 31.9695 26.9072C33.8872 27.8462 35.5211 28.9047 36.8712 30.0829C38.2212 31.2611 39.2602 32.6179 39.988 34.1532C40.716 35.6887 41.08 37.5149 41.08 39.632C41.08 42.2276 40.485 44.4808 39.2951 46.3915C38.1053 48.302 36.5166 49.8891 34.529 51.1524C32.5414 52.4159 30.2512 53.3548 27.6585 53.9693C25.0657 54.5837 22.3477 54.891 19.5044 54.891C13.8961 54.891 9.03113 53.8505 4.90934 51.7695" sodipodi:nodetypes="cccccccccccccccccccccccccccccccccccc"/><path id="shape9" transform="translate(446.09616051993, 115.349992107456)" fill="none" stroke="#000000" stroke-width="6.24" stroke-linecap="square" stroke-linejoin="bevel" d="M2.44203 0C1.27966 4.07723 -3.7761 31.1038 5.36172 33.33" sodipodi:nodetypes="cc"/><path id="shape10" transform="translate(422.69999958098, 117.102573623498)" fill="none" stroke="#000000" stroke-width="6.24" stroke-linecap="square" stroke-linejoin="bevel" d="M22.9864 14.2098C22.1408 2.18181 19.608 0 12.3115 0C3.75534 1.64573 1.66908 4.79979 0 15.1815C1.58538 24.2947 2.47838 29.3913 9.77488 29.3913C23.7272 29.7652 22.7739 20.8979 22.9864 14.2098" sodipodi:nodetypes="ccccc"/><path id="shape04" transform="translate(464.13273511543, 110.65275002861)" fill="#000000" fill-rule="evenodd" stroke-opacity="0" stroke="#000000" stroke-width="0" stroke-linecap="square" stroke-linejoin="bevel" d="M30.3225 35.895L24.8775 42.615L24.1575 26.0437C24.1575 17.5537 28.2587 5.38875 22.0613 5.38875C18.8587 5.38875 11.6487 6.59313 9.55125 9.00187C7.45375 11.4106 6.405 14.4513 6.405 18.1238L5.205 38.535L0 40.935L0.24 12.8887L2.085 6.45375L6.405 7.575L6.5625 7.575C9.5825 2.525 13.9575 0 19.6875 0C24.0625 0 27.4087 1.4125 29.7262 4.2375C32.0437 7.0625 29.6025 19.7838 29.6025 25.1213" sodipodi:nodetypes="ccccccccccccccc"/><path id="shape11" transform="translate(528.66127856952, 115.885708288324)" fill="none" stroke="#000000" stroke-width="6.24" stroke-linecap="square" stroke-linejoin="bevel" d="M3.31163 0C1.57673 1.5213 -1.59137 23.4808 0.951333 30.93" sodipodi:nodetypes="cc"/><path id="shape12" transform="translate(505.954712234631, 117.278288613765)" fill="none" stroke="#000000" stroke-width="6.24" stroke-linecap="square" stroke-linejoin="bevel" d="M22.9864 14.2098C22.1408 2.18181 19.608 0 12.3115 0C3.75534 1.64574 1.66908 4.79982 0 15.1814C1.58538 24.2946 2.47838 29.3913 9.77488 29.3913C23.7272 29.7652 22.7739 20.8978 22.9864 14.2098" sodipodi:nodetypes="ccccc"/><path id="shape05" transform="translate(545.972981796647, 109.874250228881)" fill="#000000" fill-rule="evenodd" stroke-opacity="0" stroke="#000000" stroke-width="0" stroke-linecap="square" stroke-linejoin="bevel" d="M24.8775 42.615L24.1575 26.0437C24.1575 17.5537 28.2587 5.38875 22.0613 5.38875C18.8587 5.38875 11.6487 6.59313 9.55125 9.00187C7.45375 11.4106 6.405 14.4513 6.405 18.1238L5.205 38.535L0 40.935L0.24 12.8887L2.085 6.45375L6.405 7.575L6.5625 7.575C9.5825 2.525 13.9575 0 19.6875 0C24.0625 0 27.4087 1.4125 29.7262 4.2375C32.0437 7.0625 29.6025 19.7838 29.6025 25.1213L30.1425 35.595" sodipodi:nodetypes="ccccccccccccccc"/><path id="shape06" transform="translate(631.68942320028, 113.061424895962)" fill="none" stroke="#000000" stroke-width="6.24" stroke-linecap="square" stroke-linejoin="bevel" d="M22.9864 18.3624C22.1408 6.33439 19.608 4.15258 12.3115 4.15258C3.75534 5.79832 1.66908 8.9524 0 19.334C1.58538 28.4472 2.47838 33.5439 9.77488 33.5439C23.7272 33.9178 22.7739 25.0504 22.9864 18.3624M21.6982 0C24.7633 6.8013 24.3552 24.9208 22.4579 35.73" sodipodi:nodetypes="ccccccc"/><path id="shape07" transform="translate(591.369424802451, 90.7414264051502)" fill="none" stroke="#000000" stroke-width="6.24" stroke-linecap="square" stroke-linejoin="bevel" d="M22.9864 39.2424C22.1408 27.2144 19.608 25.0326 12.3115 25.0326C3.75534 26.6783 1.66908 29.8324 0 40.214C1.58538 49.3272 2.47838 54.4239 9.77488 54.4239C23.7272 54.7978 22.7739 45.9304 22.9864 39.2424M20.9782 0C27.6433 4.4013 24.3552 45.8008 22.4579 56.61" sodipodi:nodetypes="ccccccc"/>
</svg>
