<?xml version="1.0" encoding="UTF-8"?>
<svg id="Camada_1" data-name="Camada 1" xmlns="http://www.w3.org/2000/svg" viewBox="0 0 325.64 461.69">
  <defs>
    <style>
      .cls-1 {
        fill: none;
        stroke: #fff;
        stroke-linecap: round;
        stroke-linejoin: round;
        stroke-width: 20px;
      }
    </style>
  </defs>
  <path class="cls-1" d="m12.4,253.28c-9.56-16.72,8.06-34.73,78.45-146.95C137.91,31.31,148.64,9.71,168.24,10c19.41.29,27.43,21.75,74.5,98.25,67.88,110.34,79.29,128.09,70.18,143.72-10.68,18.32-38.28,11.12-150.37,11.44-112.41.32-139.96,7.71-150.15-10.13Z"/>
  <path class="cls-1" d="m109.22,347.39c3.86,74.38,2.88,80.76,11.45,89.13,23.23,22.66,74.96,19.32,95.21-5.85,7.99-9.93,6.16-17.15,6-75.05-.18-64.63,2.03-78.91-9.49-87.34-4.87-3.56-7.34-2.53-54.43-3.05-33.39-.37-36.51-.93-41.14,2.42-11.96,8.65-10.37,26.32-7.59,79.75Z"/>
</svg>