<?xml version="1.0" encoding="UTF-8"?>
<svg xmlns="http://www.w3.org/2000/svg" viewBox="0 0 308.61 445.57">
  <defs>
    <style>
      .cls-1 {
        fill: #fff;
      }

      .cls-2 {
        fill: none;
        stroke: #1d1d1b;
        stroke-miterlimit: 10;
        stroke-width: 2px;
      }
    </style>
  </defs>
  <g id="Camada_1" data-name="Camada 1">
    <path class="cls-1" d="m3.85,244.28c-9.56-16.72,8.06-34.73,78.45-146.95C129.37,22.3,140.09.71,159.69,1c19.41.29,27.43,21.75,74.5,98.25,67.88,110.34,79.29,128.09,70.18,143.72-10.68,18.32-38.28,11.12-150.37,11.44-112.41.32-139.96,7.71-150.15-10.13Z"/>
    <path class="cls-1" d="m100.67,338.39c3.09,65.74-1.92,73.52,8.56,85.65,22.33,25.85,77.09,27.6,98.4,3.59,10.34-11.66,5.14-20.76,5.7-81.01.57-61.93,6.32-80.94-7.59-91.86-6.15-4.82-20.55-4.87-49.37-4.98-29.45-.11-44.31-.05-50.64,5.2-12.39,10.28-7.68,27.36-5.05,83.41Z"/>
  </g>
  <g id="Camada_2" data-name="Camada 2">
    <path class="cls-2" d="m159.69,1c-19.87-.25-28.46,21.49-82.02,103.71C20.19,192.95-8.56,227.24,3.85,244.28c8.09,11.11,31.19,11.48,52.52,11.83,25.35.41,47.94-5.59,49.36-1.13.55,1.73-2.67,3.11-5.69,7.46-6.64,9.56-4.07,21.55-2.53,31.01,1,6.13,1.7,18.65,3.1,43.67.35,6.21.69,22.64,1.38,55.5.32,15.32.31,16.17,1.06,18.46,6.63,20.36,33.18,32.69,55.79,33.44,18.68.63,45.12-6.29,53.52-24.62,2.8-6.11,1.2-8.25.33-30.26-1-25.25.15-46.91,1.01-63.26.62-11.82-.12-23.73,1.2-35.49,1.01-9.03,2.55-17.6-2.12-26.15-3.47-6.36-7.77-7.91-7.05-9.99,1.69-4.89,25.77,3.07,54.41.97,18.74-1.37,36.81-2.7,44.23-12.76,12.8-17.36-13.06-51.28-65.09-135.45C186.01,21.33,178.71,1.24,159.69,1Z"/>
  </g>
</svg>